<?xml version="1.0" encoding="UTF-8"?>
<svg id="Layer_1" data-name="Layer 1" xmlns="http://www.w3.org/2000/svg" viewBox="0 0 400 100">
  <defs>
    <style>
      .cls-1 {
        fill: none;
        stroke: #ff2d20;
        stroke-linecap: round;
        stroke-miterlimit: 10;
        stroke-width: 4px;
      }

      .cls-2 {
        fill: #ff2d20;
      }

      .cls-3 {
        fill: #f2f2f2;
      }
    </style>
  </defs>
  <g>
    <path class="cls-1" d="M48.67,55.23c-3.6,8.97-17.02,9.56-20.86,0"/>
    <path class="cls-1" d="M44.33,40.46c0,3.36-2.72,6.08-6.08,6.08s-6.08-2.72-6.08-6.08,2.72-6.08,6.08-6.08,6.08,2.72,6.08,6.08Z"/>
    <path class="cls-1" d="M59.1,36.11h17.38M59.1,48.28h17.38M59.1,60.44h8.69"/>
  </g>
  <g>
    <path class="cls-2" d="M247.84,47.72c-1.38,1.33-3.47,1.99-6.29,1.99h-4.64v10.09h-3.15v-24.16h7.8c2.73,0,4.8.66,6.22,1.98,1.42,1.32,2.13,3.02,2.13,5.1s-.69,3.68-2.06,5.01ZM245.43,45.97c.83-.76,1.25-1.85,1.25-3.26,0-2.98-1.71-4.47-5.13-4.47h-4.64v8.87h4.64c1.76,0,3.05-.38,3.88-1.14Z"/>
    <path class="cls-2" d="M271.04,51.48h-15.18c.12,1.87.76,3.33,1.92,4.38,1.17,1.05,2.58,1.58,4.25,1.58,1.36,0,2.5-.32,3.41-.95.91-.63,1.55-1.48,1.92-2.55h3.4c-.51,1.83-1.53,3.31-3.05,4.45-1.52,1.14-3.42,1.72-5.68,1.72-1.8,0-3.42-.4-4.84-1.21s-2.54-1.96-3.34-3.45c-.81-1.49-1.21-3.22-1.21-5.18s.39-3.69,1.18-5.16c.79-1.48,1.89-2.62,3.31-3.41,1.42-.8,3.06-1.2,4.91-1.2s3.4.39,4.78,1.18c1.39.79,2.46,1.87,3.21,3.24.75,1.38,1.13,2.93,1.13,4.66,0,.6-.03,1.24-.1,1.91ZM267.09,45.81c-.53-.87-1.25-1.52-2.17-1.98s-1.92-.68-3.03-.68c-1.59,0-2.95.51-4.07,1.52-1.12,1.02-1.76,2.43-1.92,4.23h11.99c0-1.2-.27-2.24-.8-3.1Z"/>
    <path class="cls-2" d="M280.83,41.36c1.03-.6,2.28-.9,3.76-.9v3.26h-.83c-3.54,0-5.3,1.92-5.3,5.75v10.33h-3.15v-18.99h3.15v3.08c.55-1.09,1.35-1.93,2.37-2.53Z"/>
    <path class="cls-2" d="M291.04,59.37c-1.16-.5-2.07-1.19-2.74-2.08s-1.04-1.91-1.11-3.07h3.26c.09.95.54,1.72,1.33,2.32.8.6,1.84.9,3.14.9,1.2,0,2.15-.27,2.84-.8s1.04-1.2,1.04-2.01-.37-1.45-1.11-1.85c-.74-.4-1.88-.8-3.43-1.2-1.41-.37-2.56-.75-3.45-1.13s-1.65-.95-2.29-1.7c-.64-.75-.95-1.74-.95-2.96,0-.97.29-1.86.87-2.67.58-.81,1.4-1.45,2.46-1.92,1.06-.47,2.28-.71,3.64-.71,2.1,0,3.8.53,5.09,1.59,1.29,1.06,1.99,2.52,2.08,4.37h-3.15c-.07-.99-.47-1.79-1.2-2.39-.73-.6-1.71-.9-2.93-.9-1.13,0-2.03.24-2.7.73-.67.49-1,1.12-1,1.91,0,.62.2,1.14.61,1.54s.91.73,1.53.97c.61.24,1.46.51,2.55.81,1.36.37,2.47.73,3.33,1.09.85.36,1.59.9,2.2,1.61.61.72.93,1.65.95,2.81,0,1.04-.29,1.98-.87,2.81-.58.83-1.39,1.49-2.44,1.96-1.05.47-2.26.71-3.62.71-1.46,0-2.76-.25-3.92-.75Z"/>
    <path class="cls-2" d="M309.78,58.9c-1.44-.81-2.58-1.96-3.4-3.45-.82-1.49-1.23-3.22-1.23-5.18s.42-3.66,1.26-5.15c.84-1.49,1.99-2.63,3.45-3.43,1.46-.8,3.08-1.2,4.89-1.2s3.43.4,4.89,1.2c1.46.8,2.61,1.94,3.45,3.41.84,1.48,1.26,3.2,1.26,5.16s-.43,3.69-1.3,5.18c-.87,1.49-2.04,2.64-3.52,3.45-1.48.81-3.12,1.21-4.92,1.21s-3.39-.4-4.84-1.21ZM317.8,56.54c.99-.53,1.8-1.33,2.41-2.39.61-1.06.92-2.36.92-3.88s-.3-2.82-.9-3.88c-.6-1.06-1.39-1.85-2.36-2.37s-2.02-.78-3.15-.78-2.21.26-3.17.78-1.73,1.31-2.3,2.37c-.58,1.06-.87,2.36-.87,3.88s.28,2.85.85,3.92c.57,1.06,1.32,1.85,2.27,2.37.95.52,1.99.78,3.12.78s2.19-.27,3.19-.8Z"/>
    <path class="cls-2" d="M343.38,42.56c1.43,1.4,2.15,3.41,2.15,6.05v11.2h-3.12v-10.75c0-1.89-.47-3.34-1.42-4.35-.95-1.01-2.24-1.51-3.88-1.51s-2.99.52-3.97,1.56c-.98,1.04-1.47,2.55-1.47,4.54v10.5h-3.15v-18.99h3.15v2.7c.62-.97,1.47-1.72,2.55-2.25,1.07-.53,2.26-.8,3.55-.8,2.31,0,4.18.7,5.62,2.1Z"/>
    <path class="cls-2" d="M350.69,45.12c.79-1.47,1.87-2.6,3.24-3.41,1.38-.81,2.91-1.21,4.59-1.21s3.11.36,4.33,1.07c1.22.72,2.14,1.62,2.74,2.7v-3.47h3.19v18.99h-3.19v-3.54c-.62,1.11-1.55,2.03-2.79,2.76-1.24.73-2.68,1.09-4.32,1.09s-3.21-.42-4.58-1.25c-1.36-.83-2.44-2-3.22-3.5-.79-1.5-1.18-3.21-1.18-5.13s.39-3.65,1.18-5.11ZM364.73,46.52c-.58-1.06-1.36-1.88-2.34-2.44-.98-.57-2.06-.85-3.24-.85s-2.25.28-3.22.83c-.97.55-1.75,1.36-2.32,2.43-.58,1.06-.87,2.31-.87,3.74s.29,2.72.87,3.8c.58,1.07,1.35,1.9,2.32,2.46.97.57,2.04.85,3.22.85s2.26-.28,3.24-.85c.98-.57,1.76-1.39,2.34-2.46.58-1.07.87-2.33.87-3.76s-.29-2.68-.87-3.74Z"/>
  </g>
  <rect class="cls-2" x="89.63" y="30.37" width="136.17" height="37.14"/>
  <g>
    <path class="cls-3" d="M101.75,57.24h8.46v2.56h-11.61v-24.16h3.15v21.59Z"/>
    <path class="cls-3" d="M113.57,45.12c.79-1.47,1.87-2.6,3.24-3.41,1.37-.81,2.91-1.21,4.59-1.21s3.11.36,4.33,1.07c1.22.72,2.14,1.62,2.74,2.7v-3.47h3.19v18.99h-3.19v-3.54c-.62,1.11-1.55,2.03-2.79,2.76-1.24.73-2.68,1.09-4.32,1.09s-3.21-.42-4.58-1.25c-1.36-.83-2.44-2-3.22-3.5-.79-1.5-1.18-3.21-1.18-5.13s.39-3.65,1.18-5.11ZM127.61,46.52c-.58-1.06-1.36-1.88-2.34-2.44-.98-.57-2.06-.85-3.24-.85s-2.25.28-3.22.83c-.97.55-1.75,1.36-2.32,2.43-.58,1.06-.87,2.31-.87,3.74s.29,2.72.87,3.8c.58,1.07,1.35,1.89,2.32,2.46.97.57,2.04.85,3.22.85s2.26-.28,3.24-.85c.98-.57,1.76-1.39,2.34-2.46.58-1.08.87-2.33.87-3.76s-.29-2.68-.87-3.74Z"/>
    <path class="cls-3" d="M142.53,41.36c1.03-.6,2.28-.9,3.76-.9v3.26h-.83c-3.54,0-5.3,1.92-5.3,5.75v10.33h-3.15v-18.99h3.15v3.08c.55-1.09,1.35-1.93,2.37-2.53Z"/>
    <path class="cls-3" d="M149.93,45.12c.79-1.47,1.87-2.6,3.24-3.41,1.37-.81,2.91-1.21,4.59-1.21s3.11.36,4.33,1.07c1.22.72,2.14,1.62,2.74,2.7v-3.47h3.19v18.99h-3.19v-3.54c-.62,1.11-1.55,2.03-2.79,2.76-1.24.73-2.68,1.09-4.32,1.09s-3.21-.42-4.58-1.25c-1.36-.83-2.44-2-3.22-3.5-.79-1.5-1.18-3.21-1.18-5.13s.39-3.65,1.18-5.11ZM163.97,46.52c-.58-1.06-1.36-1.88-2.34-2.44-.98-.57-2.06-.85-3.24-.85s-2.25.28-3.22.83c-.97.55-1.75,1.36-2.32,2.43-.58,1.06-.87,2.31-.87,3.74s.29,2.72.87,3.8c.58,1.07,1.35,1.89,2.32,2.46.97.57,2.04.85,3.22.85s2.26-.28,3.24-.85c.98-.57,1.76-1.39,2.34-2.46.58-1.08.87-2.33.87-3.76s-.29-2.68-.87-3.74Z"/>
    <path class="cls-3" d="M180.43,56.89l5.89-16.08h3.36l-7.45,18.99h-3.67l-7.45-18.99h3.4l5.93,16.08Z"/>
    <path class="cls-3" d="M210.04,51.48h-15.18c.12,1.87.76,3.33,1.92,4.38,1.17,1.05,2.58,1.58,4.25,1.58,1.36,0,2.5-.32,3.41-.95.91-.64,1.55-1.48,1.92-2.55h3.4c-.51,1.83-1.53,3.31-3.05,4.45-1.52,1.14-3.42,1.72-5.68,1.72-1.8,0-3.42-.4-4.84-1.21-1.42-.81-2.54-1.96-3.34-3.45-.81-1.49-1.21-3.22-1.21-5.18s.39-3.69,1.18-5.16c.79-1.48,1.89-2.62,3.31-3.41,1.42-.8,3.06-1.2,4.91-1.2s3.4.39,4.78,1.18c1.39.79,2.46,1.87,3.21,3.24.75,1.38,1.13,2.93,1.13,4.66,0,.6-.03,1.24-.1,1.91ZM206.08,45.81c-.53-.87-1.25-1.52-2.17-1.98s-1.92-.68-3.03-.68c-1.59,0-2.95.51-4.07,1.52-1.12,1.02-1.76,2.43-1.92,4.23h11.99c0-1.2-.27-2.24-.8-3.1Z"/>
    <path class="cls-3" d="M217.45,34.15v25.65h-3.15v-25.65h3.15Z"/>
  </g>
</svg>